<svg width="20" height="20" viewBox="0 0 20 20" fill="none" xmlns="http://www.w3.org/2000/svg">
  <path d="M17.9056 16.6408C16.6704 14.5064 14.7314 13.0087 12.4782 12.3736C13.5737 11.8168 14.4496 10.9072 14.9649 9.79162C15.4801 8.67604 15.6047 7.41942 15.3184 6.22441C15.0321 5.0294 14.3516 3.96563 13.3868 3.20464C12.422 2.44365 11.2289 2.02979 10.0001 2.02979C8.77129 2.02979 7.57827 2.44365 6.61343 3.20464C5.64859 3.96563 4.96816 5.0294 4.68186 6.22441C4.39557 7.41942 4.52009 8.67604 5.03534 9.79162C5.5506 10.9072 6.42657 11.8168 7.52199 12.3736C5.26887 13.008 3.3298 14.5056 2.09465 16.6408C2.06073 16.6941 2.03796 16.7538 2.0277 16.8162C2.01744 16.8786 2.0199 16.9424 2.03494 17.0038C2.04998 17.0652 2.07729 17.1229 2.11522 17.1735C2.15315 17.2241 2.20092 17.2664 2.25565 17.2981C2.31038 17.3297 2.37095 17.35 2.43371 17.3576C2.49647 17.3652 2.56012 17.36 2.62084 17.3424C2.68155 17.3248 2.73808 17.2951 2.78701 17.2551C2.83595 17.2151 2.87628 17.1655 2.90559 17.1095C4.40637 14.5166 7.05793 12.9689 10.0001 12.9689C12.9423 12.9689 15.5939 14.5166 17.0946 17.1095C17.124 17.1655 17.1643 17.2151 17.2132 17.2551C17.2622 17.2951 17.3187 17.3248 17.3794 17.3424C17.4401 17.36 17.5038 17.3652 17.5665 17.3576C17.6293 17.35 17.6898 17.3297 17.7446 17.2981C17.7993 17.2664 17.8471 17.2241 17.885 17.1735C17.9229 17.1229 17.9502 17.0652 17.9653 17.0038C17.9803 16.9424 17.9828 16.8786 17.9725 16.8162C17.9623 16.7538 17.9395 16.6941 17.9056 16.6408ZM5.46887 7.50015C5.46887 6.60395 5.73462 5.72788 6.23252 4.98272C6.73042 4.23756 7.4381 3.65678 8.26608 3.31382C9.09406 2.97086 10.0051 2.88113 10.8841 3.05597C11.7631 3.2308 12.5705 3.66236 13.2042 4.29607C13.8379 4.92978 14.2695 5.73717 14.4443 6.61615C14.6191 7.49512 14.5294 8.40621 14.1864 9.23418C13.8435 10.0622 13.2627 10.7698 12.5175 11.2677C11.7724 11.7656 10.8963 12.0314 10.0001 12.0314C8.7988 12.03 7.6471 11.5521 6.79764 10.7026C5.94818 9.85316 5.47031 8.70147 5.46887 7.50015Z" fill="#2D3B36" />
</svg>